<?xml version="1.0" standalone="no"?>
<!DOCTYPE svg PUBLIC "-//W3C//DTD SVG 20010904//EN"
 "http://www.w3.org/TR/2001/REC-SVG-20010904/DTD/svg10.dtd">
<svg version="1.0" xmlns="http://www.w3.org/2000/svg"
 width="150.000000pt" height="150.000000pt" viewBox="0 0 150.000000 150.000000"
 preserveAspectRatio="xMidYMid meet">

<g transform="translate(0.000000,150.000000) scale(0.100000,-0.100000)"
fill="#000000" stroke="none">
<path d="M475 1109 c-137 -37 -260 -70 -272 -73 l-23 -6 0 -364 0 -364 83 -22
c94 -26 115 -27 175 -11 44 12 61 38 17 27 -14 -3 -36 -9 -50 -12 l-25 -6 0
132 0 133 46 -7 c26 -3 62 -6 80 -6 l34 0 2 -162 3 -162 80 -23 c44 -12 90
-23 102 -23 12 0 139 32 283 70 144 39 264 70 266 70 2 0 4 47 4 105 0 58 -2
105 -4 105 -2 0 -121 -31 -264 -70 -143 -38 -263 -70 -266 -70 -3 0 -6 176 -6
390 l0 390 28 -6 c15 -4 131 -35 257 -69 l230 -61 3 -83 c3 -75 1 -82 -15 -77
-69 20 -323 86 -332 86 -8 0 -11 -66 -11 -220 0 -140 4 -220 10 -220 6 0 10
75 10 205 0 189 1 205 18 204 9 0 87 -20 172 -43 85 -24 158 -41 163 -39 4 2
7 49 7 103 0 85 -2 99 -17 104 -23 7 -503 136 -523 140 -8 2 -127 -27 -265
-65z m245 -437 c0 -263 -2 -481 -5 -484 -3 -3 -39 4 -80 15 l-75 20 0 162 0
162 -61 7 c-34 3 -79 6 -100 6 l-39 0 0 -141 0 -141 -27 7 c-16 3 -52 13 -81
21 l-52 15 2 347 3 346 250 67 c138 37 253 68 258 68 4 1 7 -214 7 -477z"/>
<path d="M445 916 l-80 -23 -3 -97 -3 -98 93 7 c51 4 96 9 101 12 4 2 7 53 7
114 0 126 9 120 -115 85z m95 -90 c0 -47 -3 -87 -7 -89 -5 -3 -39 -6 -78 -8
l-70 -4 0 75 0 75 60 17 c99 27 95 30 95 -66z"/>
</g>
</svg>
